<?xml version="1.0" standalone="no"?>
<!DOCTYPE svg PUBLIC "-//W3C//DTD SVG 20010904//EN"
 "http://www.w3.org/TR/2001/REC-SVG-20010904/DTD/svg10.dtd">
<svg version="1.0" xmlns="http://www.w3.org/2000/svg"
 width="1200.000000pt" height="1200.000000pt" viewBox="0 0 1200.000000 1200.000000"
 preserveAspectRatio="xMidYMid meet">
<metadata>
Created by potrace 1.11, written by Peter Selinger 2001-2013
</metadata>
<g transform="translate(0.000000,1200.000000) scale(0.100000,-0.100000)"
fill="#000000" stroke="none">
<path d="M3888 9125 c-1 -1 -37 -6 -78 -9 -41 -4 -88 -9 -105 -11 -16 -3 -46
-7 -65 -9 -172 -24 -508 -111 -635 -165 -11 -5 -51 -21 -90 -37 -125 -49 -292
-134 -426 -215 -127 -76 -351 -239 -434 -314 -296 -270 -483 -504 -678 -850
-143 -256 -300 -712 -332 -970 -3 -22 -10 -67 -15 -100 -31 -185 -34 -623 -6
-833 14 -108 48 -290 70 -382 20 -80 61 -218 82 -275 14 -38 29 -81 34 -95 54
-168 245 -520 385 -709 47 -63 45 -60 90 -116 70 -88 97 -118 220 -241 357
-360 773 -613 1261 -767 106 -34 339 -90 414 -100 19 -3 67 -10 105 -16 150
-22 264 -25 965 -26 l725 0 0 623 0 622 -645 0 c-753 1 -772 1 -975 36 -88 15
-257 62 -320 89 -16 7 -59 25 -95 40 -532 227 -934 732 -1049 1315 -32 164
-34 183 -36 376 -4 323 51 579 185 859 181 378 483 678 855 850 135 63 221 96
282 110 10 2 54 13 99 24 201 50 253 52 1114 54 l585 2 0 623 0 623 -742 -1
c-407 -1 -743 -3 -745 -5z"/>
<path d="M6625 8508 l0 -623 630 -1 c801 -2 857 -5 1074 -55 239 -55 544 -199
712 -336 90 -74 123 -104 192 -176 227 -237 377 -512 461 -842 19 -74 24 -105
45 -255 10 -68 7 -393 -4 -470 -60 -424 -225 -763 -525 -1079 -74 -78 -249
-215 -350 -274 -141 -83 -407 -191 -516 -211 -16 -2 -40 -7 -54 -11 -14 -3
-41 -8 -60 -11 -19 -3 -42 -7 -50 -9 -16 -5 -119 -16 -184 -20 -22 -2 -340 -4
-706 -4 l-665 -1 0 -622 0 -623 720 0 c634 0 830 4 925 19 14 2 47 7 73 11 27
4 59 8 70 11 12 2 49 9 82 15 33 5 87 17 120 26 33 8 70 17 82 19 93 17 418
137 562 208 190 93 434 246 571 358 371 305 635 630 837 1032 110 220 209 496
259 727 14 64 43 241 49 294 3 33 10 94 14 135 9 74 7 501 -2 570 -3 19 -8 67
-13 105 -4 39 -8 72 -9 75 -1 3 -5 25 -9 50 -98 582 -353 1119 -731 1544 -104
117 -247 256 -340 331 -38 31 -77 61 -85 68 -170 138 -503 331 -705 408 -27
11 -59 24 -70 29 -53 25 -235 81 -365 113 -174 43 -192 47 -450 83 -25 4 -392
9 -815 11 l-770 4 0 -623z"/>
<path d="M4125 6008 l0 -623 1875 0 1875 0 0 623 0 622 -1875 0 -1875 0 0
-622z"/>
</g>
</svg>
